<?xml version="1.0" encoding="utf-8"?>
<!-- Generator: Adobe Illustrator 21.0.0, SVG Export Plug-In . SVG Version: 6.00 Build 0)  -->
<svg version="1.1" id="图层_1" xmlns="http://www.w3.org/2000/svg" xmlns:xlink="http://www.w3.org/1999/xlink" x="0px" y="0px"
	 viewBox="0 0 1000 1000" style="enable-background:new 0 0 1000 1000;" xml:space="preserve">
<style type="text/css">
	.st0{fill:#E8E8E8;}
</style>
<g>
	<g>
		<path class="st0" d="M500,0v44.5c0,0,167.7,99.6,379.4,124.5l-53.8,404.7c-7.8,58.5-38.7,111.7-86.3,148.6L500,907.5v92.5
			l267.9-214.7c53.3-42.7,87.9-104.4,96.6-172.2l60.3-469C687.8,115.4,500,0,500,0z"/>
		<path class="st0" d="M500,0v44.5c0,0-167.7,99.6-379.3,124.5l53.8,404.7c7.8,58.5,38.7,111.7,86.3,148.6L500,907.5v92.5
			L232.1,785.3c-53.3-42.7-87.9-104.4-96.6-172.2l-60.3-469C312.2,115.4,500,0,500,0z"/>
	</g>
	<g>
		<g>
			<path class="st0" d="M717.6,169.6H590.9c-15.6,0-28.4,12.8-28.4,28.4v120.4c0,15.6-12.8,28.3-28.3,28.3h-71.7
				c-15.6,0-28.3-12.7-28.3-28.3V197.9c0-15.6-12.8-28.4-28.4-28.4H279.1c-15.6,0-28.3,12.8-28.3,28.4v126.7
				c0,15.6,12.7,28.3,28.3,28.3h120.5c14.1,0,25.8,10.5,27.9,24.1v82.6c0,0.2,0,0.2,0,0.4c-1.9,13.8-13.6,24.5-27.9,24.5h-37
				c-15.6,0-28.4,12.8-28.4,28.3v40.8c0,15.6,12.8,28.4,28.4,28.4h40.7c15.6,0,28.4-12.8,28.4-28.4v-37.4
				c0-15.6,12.8-28.4,28.4-28.4h76.5c15.6,0,28.4,12.8,28.4,28.4v37.4c0,15.6,12.8,28.4,28.4,28.4h40.8c15.6,0,28.3-12.8,28.3-28.4
				V513c0-15.5-12.8-28.3-28.3-28.3h-37c-14.3,0-26-10.8-27.9-24.5c0-0.2,0-0.3,0-0.4v-82.6c2.1-13.6,13.7-24.1,27.9-24.1h120.5
				c15.6,0,28.3-12.7,28.3-28.3V197.9C745.8,182.3,733.2,169.6,717.6,169.6z M394.5,286.3c0,12.9-10.5,23.3-23.3,23.3h-58.6
				c-12.9,0-23.3-10.4-23.3-23.3v-58.6c0-12.9,10.4-23.3,23.3-23.3h58.6c12.9,0,23.3,10.4,23.3,23.3V286.3z M531,435.2
				c0,8.2-6.6,14.8-14.8,14.8H484c-8.2,0-14.8-6.6-14.8-14.8V403c0-8.2,6.6-14.8,14.8-14.8h32.2c8.2,0,14.8,6.6,14.8,14.8V435.2z
				 M705.5,286.3c0,12.9-10.5,23.3-23.3,23.3h-58.6c-12.9,0-23.3-10.4-23.3-23.3v-58.6c0-12.9,10.4-23.3,23.3-23.3h58.6
				c12.9,0,23.3,10.4,23.3,23.3V286.3z"/>
		</g>
	</g>
	<g>
		<g>
			<path class="st0" d="M333.4,643.6c19.8,0,30.7,8.6,30.7,21.3c0,9.5-6.5,17.8-22.3,21c19.1,2.3,27.2,11,27.2,22.1
				c0,12.2-10.6,24-36.4,24h-38.4v-4.4l13.6-1.3c0.4-11.6,0.4-23.4,0.4-35.3v-6.7c0-11.6,0-23.5-0.4-35.2l-13.6-1.3v-4.2H333.4z
				 M319.3,648.6c-0.4,11.4-0.4,23-0.4,35.2h8.2c17.8,0,26-6.1,26-18.4c0-11.8-7.3-16.7-23.2-16.7H319.3z M329.9,727
				c18.2,0,27.4-6.8,27.4-19c0-12.6-8.9-19.4-29.3-19.4h-9.1c0,14.2,0,26.6,0.4,38.4H329.9z"/>
			<path class="st0" d="M392.7,700.1c0.1,17.9,10.3,26.8,24.2,26.8c9.3,0,15.4-3.8,20.5-9.5l2.7,1.9c-5.4,8.7-14.4,14.3-26.5,14.3
				c-18.3,0-31.5-11.8-31.5-32.5c0-20.2,14.8-33.2,32-33.2c15.1,0,26.1,9.6,26.1,24.7c0,3.2-0.3,5.7-0.9,7.5L392.7,700.1z
				 M423.4,695.5c5.7,0,7.1-2.7,7.1-6.5c0-8.5-6.9-16.1-17-16.1c-9.5,0-19.1,7.3-20.6,22.7H423.4z"/>
			<path class="st0" d="M453.8,701.1c0-22.1,15.9-33.1,32.1-33.1c15.8,0,32,11,32,33.1c0,21.9-15.9,32.6-32,32.6
				C469.8,733.7,453.8,723,453.8,701.1z M507,701.1c0-18.1-8-28.3-21-28.3c-13.2,0-21,10.2-21,28.3c0,18.2,7.8,27.8,21,27.8
				C499,728.8,507,719.2,507,701.1z"/>
			<path class="st0" d="M560.9,696.7c13.8,4.7,19.1,10.5,19.1,18.7c0,9.6-9,18.3-26.8,18.3c-7.8,0-14-1.7-20.9-4.7l-0.5-14.2h6.3
				l2.9,11.8c3.5,1.5,7.4,2.3,12.3,2.3c11.6,0,17.1-4.5,17.1-11c0-5.9-4-9-13.6-12.2l-6.5-2.3c-10.4-3.5-17.2-8.6-17.2-17.6
				c0-9.5,8.5-17.7,23.9-17.7c7.6,0,13.3,1.8,19.6,5.2l-0.5,13.1h-5.7l-2.4-10.8c-3.5-1.8-7.2-2.7-11-2.7c-9.5,0-14.4,4.1-14.4,10.1
				c0,6.2,3.7,8.7,13.3,12.1L560.9,696.7z"/>
			<path class="st0" d="M623.3,728.1v3.9h-31.9v-3.9l11.2-1.6c0.1-6.7,0.3-16,0.3-22.2v-6.8c0-7.5,0-12.4-0.3-18.4l-12-0.7v-4
				l20.5-6.3l2,1.2l-0.4,17.2v17.8c0,6.2,0.1,15.5,0.3,22.2L623.3,728.1z M599.3,644.2c0-4.5,3.7-7.4,8.2-7.4c4.7,0,8.4,2.9,8.4,7.4
				c0,4.4-3.7,7.4-8.4,7.4C603,651.6,599.3,648.6,599.3,644.2z"/>
			<path class="st0" d="M710,728.1v3.9h-32v-3.9l11.1-1.5c0.1-6.7,0.3-16,0.3-22.3v-12.1c0-12.6-3.9-16.7-12.3-16.7
				c-6.4,0-13.1,2.5-21.4,9.7v19.2c0,6.2,0.1,15.5,0.3,22.2l10.3,1.6v3.9h-31.9v-3.9l11-1.5c0.3-6.8,0.4-16.1,0.4-22.3v-6.7
				c0-7.6-0.3-12.7-0.5-18.4l-11.6-0.8v-3.9l18.8-6.4l1.8,1.2l1,11.2c7.6-7.8,17.4-12.5,26.1-12.5c11.9,0,17.9,6.7,17.9,23.8v12.6
				c0,6.3,0.1,15.5,0.4,22.2L710,728.1z"/>
		</g>
		<g>
			<path class="st0" d="M333.4,643.6c19.8,0,30.7,8.6,30.7,21.3c0,9.5-6.5,17.8-22.3,21c19.1,2.3,27.2,11,27.2,22.1
				c0,12.2-10.6,24-36.4,24h-38.4v-4.4l13.6-1.3c0.4-11.6,0.4-23.4,0.4-35.3v-6.7c0-11.6,0-23.5-0.4-35.2l-13.6-1.3v-4.2H333.4z
				 M319.3,648.6c-0.4,11.4-0.4,23-0.4,35.2h8.2c17.8,0,26-6.1,26-18.4c0-11.8-7.3-16.7-23.2-16.7H319.3z M329.9,727
				c18.2,0,27.4-6.8,27.4-19c0-12.6-8.9-19.4-29.3-19.4h-9.1c0,14.2,0,26.6,0.4,38.4H329.9z"/>
			<path class="st0" d="M392.7,700.1c0.1,17.9,10.3,26.8,24.2,26.8c9.3,0,15.4-3.8,20.5-9.5l2.7,1.9c-5.4,8.7-14.4,14.3-26.5,14.3
				c-18.3,0-31.5-11.8-31.5-32.5c0-20.2,14.8-33.2,32-33.2c15.1,0,26.1,9.6,26.1,24.7c0,3.2-0.3,5.7-0.9,7.5L392.7,700.1z
				 M423.4,695.5c5.7,0,7.1-2.7,7.1-6.5c0-8.5-6.9-16.1-17-16.1c-9.5,0-19.1,7.3-20.6,22.7H423.4z"/>
			<path class="st0" d="M453.8,701.1c0-22.1,15.9-33.1,32.1-33.1c15.8,0,32,11,32,33.1c0,21.9-15.9,32.6-32,32.6
				C469.8,733.7,453.8,723,453.8,701.1z M507,701.1c0-18.1-8-28.3-21-28.3c-13.2,0-21,10.2-21,28.3c0,18.2,7.8,27.8,21,27.8
				C499,728.8,507,719.2,507,701.1z"/>
			<path class="st0" d="M560.9,696.7c13.8,4.7,19.1,10.5,19.1,18.7c0,9.6-9,18.3-26.8,18.3c-7.8,0-14-1.7-20.9-4.7l-0.5-14.2h6.3
				l2.9,11.8c3.5,1.5,7.4,2.3,12.3,2.3c11.6,0,17.1-4.5,17.1-11c0-5.9-4-9-13.6-12.2l-6.5-2.3c-10.4-3.5-17.2-8.6-17.2-17.6
				c0-9.5,8.5-17.7,23.9-17.7c7.6,0,13.3,1.8,19.6,5.2l-0.5,13.1h-5.7l-2.4-10.8c-3.5-1.8-7.2-2.7-11-2.7c-9.5,0-14.4,4.1-14.4,10.1
				c0,6.2,3.7,8.7,13.3,12.1L560.9,696.7z"/>
			<path class="st0" d="M623.3,728.1v3.9h-31.9v-3.9l11.2-1.6c0.1-6.7,0.3-16,0.3-22.2v-6.8c0-7.5,0-12.4-0.3-18.4l-12-0.7v-4
				l20.5-6.3l2,1.2l-0.4,17.2v17.8c0,6.2,0.1,15.5,0.3,22.2L623.3,728.1z M599.3,644.2c0-4.5,3.7-7.4,8.2-7.4c4.7,0,8.4,2.9,8.4,7.4
				c0,4.4-3.7,7.4-8.4,7.4C603,651.6,599.3,648.6,599.3,644.2z"/>
			<path class="st0" d="M710,728.1v3.9h-32v-3.9l11.1-1.5c0.1-6.7,0.3-16,0.3-22.3v-12.1c0-12.6-3.9-16.7-12.3-16.7
				c-6.4,0-13.1,2.5-21.4,9.7v19.2c0,6.2,0.1,15.5,0.3,22.2l10.3,1.6v3.9h-31.9v-3.9l11-1.5c0.3-6.8,0.4-16.1,0.4-22.3v-6.7
				c0-7.6-0.3-12.7-0.5-18.4l-11.6-0.8v-3.9l18.8-6.4l1.8,1.2l1,11.2c7.6-7.8,17.4-12.5,26.1-12.5c11.9,0,17.9,6.7,17.9,23.8v12.6
				c0,6.3,0.1,15.5,0.4,22.2L710,728.1z"/>
		</g>
	</g>
</g>
</svg>
